<?xml version="1.0" encoding="UTF-8" standalone="no"?>
<!-- Created with Inkscape (http://www.inkscape.org/) -->

<svg
   version="1.1"
   id="svg1"
   width="666.66669"
   height="666.66669"
   viewBox="0 0 666.66669 666.66669"
   sodipodi:docname="image.svg"
   inkscape:version="1.3.2 (1:1.3.2+202311252150+091e20ef0f)"
   xmlns:inkscape="http://www.inkscape.org/namespaces/inkscape"
   xmlns:sodipodi="http://sodipodi.sourceforge.net/DTD/sodipodi-0.dtd"
   xmlns="http://www.w3.org/2000/svg"
   xmlns:svg="http://www.w3.org/2000/svg">
  <defs
     id="defs1" />
  <sodipodi:namedview
     id="namedview1"
     pagecolor="#ffffff"
     bordercolor="#666666"
     borderopacity="1.0"
     inkscape:showpageshadow="2"
     inkscape:pageopacity="0.0"
     inkscape:pagecheckerboard="0"
     inkscape:deskcolor="#d1d1d1"
     inkscape:zoom="0.87741154"
     inkscape:cx="290.05773"
     inkscape:cy="331.08751"
     inkscape:window-width="1920"
     inkscape:window-height="1012"
     inkscape:window-x="0"
     inkscape:window-y="0"
     inkscape:window-maximized="1"
     inkscape:current-layer="group-R5">
    <inkscape:page
       x="0"
       y="0"
       inkscape:label="1"
       id="page1"
       width="666.66669"
       height="666.66669"
       margin="0"
       bleed="0"
       inkscape:export-filename="image.png"
       inkscape:export-xdpi="57.599998"
       inkscape:export-ydpi="57.599998" />
  </sodipodi:namedview>
  <g
     id="g1"
     inkscape:groupmode="layer"
     inkscape:label="1">
    <g
       id="group-R5">
      <path
         id="path4"
         d="m 768.54277,622.95137 c -0.0213,-0.0281 0.25467,-0.28013 0.81733,-0.74106 0.56534,-0.46147 1.40134,-1.15787 2.58134,-1.95627 2.32266,-1.64427 5.92533,-3.8532 10.87866,-6.05627 4.952,-2.2 11.25467,-4.32506 18.71067,-6.15986 7.44666,-1.88814 16.04933,-3.41987 25.396,-5.624 9.29866,-2.23694 19.55066,-5.16147 29.06,-11.09067 2.35333,-1.488 4.65066,-3.16667 6.78933,-5.09213 2.14933,-1.90787 4.20667,-4 6.02133,-6.33854 3.68267,-4.61466 6.572,-10.14013 7.78267,-16.21306 1.23467,-6.0588 0.48933,-12.61347 -2.216,-18.512 -2.64133,-5.92707 -6.98267,-11.2244 -12.32133,-15.38534 -5.35467,-4.16146 -11.71867,-7.19479 -18.45467,-9.28813 -6.74267,-2.11453 -13.87467,-3.3624 -21.13067,-4.1416 -14.51866,-1.58226 -28.90666,-0.9292 -42.44933,1.52547 -6.77066,1.22813 -13.35866,2.87187 -19.62666,4.96933 -6.25867,2.10254 -12.20134,4.72974 -17.48,8.12027 -5.29734,3.35573 -9.856,7.5344 -13.38267,12.28493 -3.49733,4.75627 -5.936,10.09213 -6.89733,15.52973 -1.91467,10.8692 2.31866,21.8676 9.904,27.3812 3.77333,2.79734 8.08666,4.3828 12.17333,5.712 4.108,1.31614 8.09333,2.3744 11.69333,3.8052 3.59867,1.4068 6.83734,3.12974 9.42134,5.2708 1.29066,1.06774 2.42,2.2224 3.352,3.43854 0.932,1.23333 1.62266,2.53746 2.13733,3.8188 0.99867,2.5828 1.27067,5.07346 1.076,7.18386 -0.17333,2.11614 -0.79733,3.84787 -1.524,5.0948 -0.71867,1.26147 -1.51733,2.0468 -2.072,2.52134 -0.588,0.44786 -0.89333,0.6588 -0.916,0.6292 -0.12267,-0.11574 1.316,-0.8652 2.60933,-3.35734 0.64,-1.2292 1.168,-2.90266 1.27067,-4.93173 0.12133,-2.02293 -0.208,-4.39907 -1.21333,-6.82973 -0.51867,-1.2052 -1.19734,-2.41827 -2.096,-3.55734 -0.91334,-1.1396 -2.01067,-2.22133 -3.264,-3.21973 -2.512,-2.0052 -5.664,-3.624 -9.208,-4.948 -3.54267,-1.34947 -7.49867,-2.3452 -11.67334,-3.62547 -4.14933,-1.2948 -8.62266,-2.864 -12.65866,-5.79066 -8.15867,-5.83067 -12.69734,-17.388 -10.756,-28.8984 0.97866,-5.74534 3.508,-11.3588 7.12933,-16.33587 3.644,-4.96987 8.37867,-9.34173 13.83067,-12.82813 5.436,-3.5256 11.52266,-6.236 17.892,-8.39747 6.376,-2.15466 13.036,-3.83333 19.90533,-5.0948 13.728,-2.51866 28.32267,-3.19733 43.052,-1.59213 7.352,0.79107 14.61066,2.0588 21.53866,4.23747 6.916,2.15986 13.50534,5.29893 19.104,9.66666 5.576,4.36827 10.116,9.92027 12.896,16.20267 2.84667,6.24426 3.62934,13.2948 2.28267,19.7228 -1.31467,6.4464 -4.388,12.22146 -8.24267,17 -1.90266,2.424 -4.04666,4.57973 -6.28533,6.54013 -2.22667,1.98133 -4.612,3.7 -7.05333,5.2224 -9.84667,6.04013 -20.27734,8.89587 -29.65734,11.05893 -9.43333,2.12494 -18.03066,3.54787 -25.45866,5.31454 -7.43867,1.71453 -13.712,3.70413 -18.664,5.764 -4.952,2.06413 -8.584,4.136 -10.96667,5.65053 -2.39333,1.50787 -3.57333,2.4256 -3.63733,2.34013"
         style="fill:#040606;fill-opacity:1;fill-rule:nonzero;stroke:none;stroke-width:0.133333" />
      <path
         id="path68"
         d="m 26.260745,434.08851 c -0.06639,0.004 -0.195904,-0.80309 -0.383405,-2.40733 -0.157173,-1.61622 -0.397035,-4.0262 -0.715001,-7.20141 -0.539076,-6.36935 -1.344172,-15.85766 -2.397224,-28.28214 -1.932847,-24.88657 -4.776646,-61.57663 -8.441486,-108.83032 -0.414791,-5.92538 -0.994743,-11.93927 -1.262863,-18.30789 -0.231935,-6.32933 -0.0077,-13.15913 2.243071,-19.75756 2.259216,-6.58147 6.622727,-12.25792 11.84227,-16.39976 5.208163,-4.21602 11.118527,-7.27786 17.177601,-9.95918 12.179171,-5.04335 24.897985,-9.89067 38.165044,-14.99995 6.698438,-2.31552 13.529139,-4.67355 20.481918,-7.07394 3.47899,-1.19738 6.98829,-2.41819 10.52827,-3.63956 3.57785,-1.07904 7.18623,-2.17011 10.83022,-3.27327 7.28297,-2.19478 14.69323,-4.42629 22.23068,-6.70019 7.60324,-1.97185 15.32862,-3.98035 23.17636,-6.01398 7.83069,-2.14771 15.85558,-3.95576 24.02516,-5.65782 8.16965,-1.69632 16.41585,-3.74874 24.87015,-5.21004 33.73571,-6.51883 69.73996,-11.05427 107.66434,-13.6515 37.92948,-2.60306 77.83425,-2.65099 119.24286,0.46581 41.40264,3.05965 84.32307,9.18643 128.14873,19.14114 10.94835,2.63479 21.9958,4.36366 33.2645,8.95493 5.55578,2.33997 11.11607,5.67541 15.70046,10.4249 4.56351,4.72135 8.22163,10.44358 10.8987,16.54439 5.46706,12.2282 7.79504,25.47584 9.8574,38.39656 2.04733,12.93818 3.85161,26.03531 5.39721,39.26879 3.08082,26.46152 5.11676,53.4745 5.99335,80.90952 0.43311,13.71189 0.5814,27.532 0.42473,41.44364 -0.11116,6.99362 -0.27756,14.38873 -2.41164,21.83749 -1.04436,3.69828 -2.71289,7.36229 -5.01212,10.55173 -2.32472,3.19557 -5.20204,5.66911 -8.11736,7.64555 -46.31704,25.83302 -97.91691,35.30356 -150.10044,41.95283 -52.26334,6.43911 -105.88374,10.30579 -160.52189,11.38225 -54.64057,0.9105 -110.29723,-0.85493 -166.55598,-5.99623 -28.13356,-2.51047 -56.42169,-5.79053 -84.790154,-10.00736 -13.967265,-2.12673 -29.185939,-3.49222 -42.878566,-12.62132 -6.784118,-4.5085 -12.422284,-11.72158 -15.689627,-19.70526 -3.354112,-7.97635 -4.955792,-16.36857 -6.099077,-24.52889 -4.2834304,-32.41239 -5.4049424,-64.99781 -3.4947104,-97.2161 0.9117024,-16.10547 2.6686864,-32.09502 5.0675504,-47.89056 1.238132,-7.87269 2.67603,-16.40709 7.090722,-24.15562 2.187261,-3.84532 5.296266,-7.24429 8.75795,-9.60851 3.461209,-2.39849 7.164992,-3.94903 10.793556,-5.05764 7.354947,-2.16753 14.259961,-2.9593 21.188112,-4.26068 6.934807,-1.1985 13.859355,-2.39691 20.768678,-3.58924 13.841057,-2.25347 27.631216,-4.48884 41.359966,-6.72883 27.485,-4.34891 54.79773,-8.24824 81.90034,-11.84052 108.41746,-14.23192 213.70509,-21.98636 314.08281,-21.94872 12.54829,-0.14159 25.01694,0.21108 37.40021,0.31878 12.37812,0.10815 24.94724,0.68722 37.31471,3.18124 12.28611,2.52411 24.79414,7.264 34.76941,16.67945 4.93098,4.68021 9.12613,10.42105 12.03828,16.86081 2.95265,6.41041 4.72638,13.30042 5.76788,20.11245 2.10472,13.70948 1.65423,27.12875 1.73446,40.14342 0.003,13.08477 0.007,26.07226 0.0154,38.95675 10e-4,12.8788 10e-4,25.66612 0.003,38.33897 -0.20624,12.65385 0.67487,25.19593 -1.25251,38.31654 -0.99279,6.48931 -3.0234,12.97497 -6.06264,18.66696 -3.03379,5.71468 -6.95765,10.70216 -11.29658,14.93062 -8.74957,8.45263 -18.90386,14.2136 -29.13504,18.58574 -10.28093,4.45881 -20.71274,7.36428 -30.97468,10.34666 -10.32068,2.81187 -20.60008,5.30824 -30.85096,7.31204 -41.00101,8.18119 -80.91522,10.70089 -118.84332,11.66756 -37.96608,0.8188 -74.03258,0.45779 -108.19559,0.21624 -34.15987,-0.37325 -66.38423,-1.22887 -96.48567,-3.02772 -30.11102,-1.75296 -58.07232,-4.36392 -83.74606,-7.85262 -25.64437,-3.56937 -49.082635,-9.02763 -68.899699,-18.16331 -9.897677,-4.5251 -18.866863,-9.86843 -26.735541,-15.81007 -3.908872,-2.97699 -7.750404,-5.8923 -10.874358,-9.71921 -3.193764,-3.70542 -5.175001,-8.73212 -5.48093,-13.50954 -0.408122,-4.77549 0.129252,-9.21381 0.45102,-13.38495 0.351928,-4.1946 0.691237,-8.21163 1.012805,-12.04519 0.658256,-7.67315 1.255734,-14.62424 1.792433,-20.84193 1.119596,-12.42478 1.981391,-21.89249 2.561864,-28.25974 0.331229,-3.18156 0.581838,-5.58919 0.757411,-7.19442 0.190906,-1.61123 0.322014,-2.42041 0.393739,-2.41029 0.06639,0.003 0.0736,0.82253 0.01917,2.44839 -0.07283,1.62051 -0.190537,4.03715 -0.342727,7.23251 -0.396284,6.38094 -0.981405,15.88932 -1.752983,28.34195 -0.413885,6.22683 -0.8782,13.19269 -1.393204,20.87463 -0.2603,3.84386 -0.532759,7.86535 -0.818251,12.06441 -0.270266,4.20453 -0.706568,8.55512 -0.264133,12.88378 0.376076,4.347 2.041969,8.43551 4.985353,11.80802 2.857137,3.41413 6.625564,6.22786 10.507221,9.09093 7.767944,5.69746 16.605852,10.80864 26.36753,15.12457 19.534869,8.71754 42.68202,13.84939 68.18421,17.14104 25.55207,3.21064 53.47366,5.55914 83.49424,7.07346 30.0314,1.55413 62.18576,2.17062 96.29622,2.31607 34.11371,0.0216 70.22279,0.15059 108.02231,-0.87083 37.77184,-1.16405 77.39182,-3.87282 117.8599,-12.14135 10.11766,-2.02425 20.25356,-4.5409 30.41579,-7.35553 10.12905,-2.97992 20.40716,-5.90537 30.17417,-10.2059 9.78877,-4.20947 19.26706,-9.7119 27.09314,-17.34634 7.86797,-7.57236 13.45857,-17.72281 15.08154,-29.29866 1.71008,-11.56039 0.89732,-24.32686 1.04729,-36.98538 -0.0395,-12.67788 -0.0805,-25.45872 -0.11806,-38.34261 -0.0307,-12.88396 -0.0713,-25.87082 -0.11162,-38.96066 -0.0971,-13.10585 0.2557,-26.22585 -1.71915,-38.75914 -1.83158,-12.52448 -6.74857,-24.20222 -15.42403,-32.14848 -8.54907,-8.04589 -19.79977,-12.45438 -31.398,-14.7853 -11.67988,-2.32368 -23.76812,-2.87752 -36.09974,-2.95206 -12.35205,-0.0743 -24.77423,-0.393 -37.27612,-0.22954 -100.04718,0.19093 -205.00547,8.09365 -313.16074,22.42364 -27.0358,3.61391 -54.28194,7.5235 -81.7053,11.89409 -13.70318,2.23954 -27.462469,4.49152 -41.272789,6.74448 -6.899005,1.19787 -13.80825,2.39589 -20.732753,3.59996 -6.897824,1.27794 -14.01596,2.17667 -20.286285,4.05513 -6.336393,1.90835 -11.742838,5.16687 -14.874228,10.84906 -3.279872,5.66782 -4.729454,13.06959 -5.88367,20.74045 -2.347118,15.4913 -4.062888,31.154 -4.958951,46.9388 -1.869065,31.54813 -0.750342,63.5958 3.424012,95.20345 1.0866,7.78383 2.599598,15.3652 5.407503,22.01288 2.782576,6.66532 7.013875,12.08511 12.600984,15.84908 11.242077,7.62409 25.565715,9.30939 39.644049,11.34256 28.230288,4.20799 56.385378,7.47904 84.381068,9.99779 55.99297,5.14623 111.38948,6.95079 165.77025,6.10229 54.38868,-1.00883 107.7701,-4.78529 159.78986,-11.10543 25.98896,-3.18828 51.58741,-7.20462 76.40567,-13.50649 12.40151,-3.14224 24.60548,-6.85864 36.49717,-11.29021 5.93776,-2.24422 11.80152,-4.65296 17.58641,-7.20904 5.68015,-2.72573 11.71664,-5.20635 16.57606,-8.46614 4.96205,-3.23309 8.24509,-7.648 9.90549,-13.58897 1.71267,-5.86191 1.98684,-12.54954 2.08552,-19.34841 0.17941,-13.76902 0.0587,-27.46378 -0.34733,-41.05028 -0.80627,-27.17314 -2.76178,-53.93585 -5.75222,-80.15874 -1.49779,-13.1143 -3.25429,-26.09217 -5.25401,-38.92251 -1.97844,-12.77347 -4.25556,-25.35262 -9.12034,-36.26463 -2.37638,-5.47141 -5.52609,-10.34481 -9.33211,-14.31923 -3.81113,-3.96863 -8.43875,-6.80638 -13.45484,-8.95045 -10.05114,-4.18465 -21.39294,-6.11411 -32.1876,-8.7288 -43.47937,-10.04131 -86.08984,-16.29972 -127.20869,-19.5248 -41.12985,-3.28217 -80.78721,-3.4391 -118.5001,-1.05748 -37.71306,2.37018 -73.53671,6.67346 -107.12802,12.93214 -8.41937,1.40345 -16.62559,3.39219 -24.7606,5.01347 -8.13986,1.63858 -16.135,3.38313 -23.93609,5.45593 -7.82302,1.97596 -15.52398,3.90959 -23.0975,5.81798 -7.513,2.19907 -14.89865,4.36718 -22.16739,6.48729 -3.62402,1.06851 -7.22771,2.13088 -10.79578,3.18114 -3.53034,1.18116 -7.03009,2.35602 -10.5044,3.52469 -6.938369,2.33714 -13.749746,4.62043 -20.438938,6.86717 -13.213088,4.95951 -26.005054,9.69953 -38.049083,14.54576 -5.93321,2.55313 -11.585343,5.4443 -16.415822,9.27568 -4.851714,3.78028 -8.678787,8.74309 -10.715544,14.46789 -2.031297,5.74768 -2.357083,12.05868 -2.184715,18.17167 0.198188,6.13537 0.723388,12.25896 1.071559,18.16273 3.001096,47.31175 5.334521,84.05704 6.909738,108.96169 0.700941,12.46536 1.23534,21.9701 1.595808,28.35996 0.128792,3.19584 0.231551,5.6141 0.301713,7.23766 0.0434,1.61836 0.03067,2.43672 -0.04063,2.4438"
         style="fill:#ffffff;fill-opacity:1;fill-rule:nonzero;stroke:none;stroke-width:0.540744" />
    </g>
  </g>
</svg>
