<?xml version="1.0" encoding="UTF-8" standalone="no"?>
<!-- Created with Inkscape (http://www.inkscape.org/) -->

<svg
   width="199mm"
   height="214mm"
   viewBox="0 0 199 214"
   version="1.1"
   id="svg1"
   xml:space="preserve"
   inkscape:export-filename="logo.svg"
   inkscape:export-xdpi="30"
   inkscape:export-ydpi="30"
   xmlns:inkscape="http://www.inkscape.org/namespaces/inkscape"
   xmlns:sodipodi="http://sodipodi.sourceforge.net/DTD/sodipodi-0.dtd"
   xmlns="http://www.w3.org/2000/svg"
   xmlns:svg="http://www.w3.org/2000/svg"><sodipodi:namedview
     id="namedview1"
     pagecolor="#ffffff"
     bordercolor="#666666"
     borderopacity="1.0"
     inkscape:showpageshadow="2"
     inkscape:pageopacity="0.0"
     inkscape:pagecheckerboard="0"
     inkscape:deskcolor="#d1d1d1"
     inkscape:document-units="mm" /><defs
     id="defs1" /><g
     inkscape:label="Layer 1"
     inkscape:groupmode="layer"
     id="layer1"><path
       d="m 89.229617,207.87319 c -6.152572,-0.33623 -14.757229,-1.8211 -18.464272,-3.18632 -2.057328,-0.75766 -3.858822,-1.91462 -4.496401,-2.88767 -0.41559,-0.63429 -1.844621,-10.67313 -2.497226,-17.54282 -0.197723,-2.08153 -0.453894,-4.24907 -0.569252,-4.81676 -0.115317,-0.5677 -0.264083,-1.70306 -0.330499,-2.52308 -0.17504,-2.16097 -0.574204,-5.32952 -0.953573,-7.5692 -0.482574,-2.84904 -1.380471,-8.74584 -1.693876,-11.12442 -0.1496,-1.13539 -0.469642,-3.25132 -0.711211,-4.70209 -0.952343,-5.71959 -1.590671,-9.84102 -1.826907,-11.79568 -0.136116,-1.12609 -0.283721,-2.10667 -0.328037,-2.17903 -0.04429,-0.0723 -0.406435,-2.40229 -0.804708,-5.17766 -0.398245,-2.77538 -0.880437,-5.92348 -1.071508,-6.99578 -0.19107,-1.07231 -0.588467,-3.54949 -0.883124,-5.50488 -0.294658,-1.95538 -0.762631,-4.79383 -1.039954,-6.30767 -0.277341,-1.51384 -0.582271,-3.37174 -0.677651,-4.12865 -0.09537,-0.75693 -0.340685,-2.46001 -0.545114,-3.78462 -0.599021,-3.88165 -1.959456,-13.910998 -2.224556,-16.399903 -0.316518,-2.97153 -0.402645,-3.15659 -1.622324,-3.48596 -1.709354,-0.46162 -1.76605,-0.56168 -2.054326,-3.624514 -0.142483,-1.51384 -0.342751,-2.841501 -0.445051,-2.95034 -0.102299,-0.108822 -0.685289,-0.290771 -1.295503,-0.404274 -1.573452,-0.292651 -4.116268,-1.30157 -4.862074,-1.929153 -0.348284,-0.293056 -0.746005,-0.90019 -0.883804,-1.34917 -0.299072,-0.974526 -0.177756,-1.167332 2.441974,-3.880994 1.729207,-1.791188 3.217225,-2.911179 6.869836,-5.1707 1.75135,-1.083406 1.957702,-1.158159 2.311971,-0.837562 1.871647,1.693819 12.436613,3.934519 22.14255,4.696189 8.757386,0.687219 18.308439,0.98298 27.524383,0.852325 5.17229,-0.07328 9.66221,-0.179977 9.9776,-0.236998 0.31537,-0.05703 2.01845,-0.170752 3.78459,-0.252765 6.32674,-0.293794 12.28421,-0.954309 16.85868,-1.869124 4.72369,-0.944674 7.2843,-1.64036 9.16789,-2.490827 0.98171,-0.443252 1.9572,-0.805912 2.16778,-0.805912 0.66121,0 6.8254,3.89523 8.4876,5.363417 1.9998,1.766393 2.88436,3.113949 2.88436,4.394139 0,0.615512 -0.14198,1.080186 -0.40187,1.315385 -0.48084,0.435145 -2.80229,1.487638 -4.89906,2.221103 l -1.51631,0.530421 -0.13285,2.05085 c -0.15847,2.445884 -0.6194,3.223394 -2.51237,4.237834 -1.11541,0.59774 -1.20776,0.71177 -1.26509,1.56228 -0.13299,1.97357 -2.23805,18.652253 -2.89484,22.936983 -0.82256,5.3659 -2.48705,17.32724 -3.00031,21.56074 -0.5938,4.89778 -1.50965,11.91131 -2.89033,22.1342 -0.12776,0.94616 -0.3784,2.85566 -0.55692,4.24333 -0.503,3.91026 -0.9836,7.3625 -1.35702,9.74823 -0.50503,3.22651 -0.56344,3.62568 -0.80563,5.50487 -0.51555,4.00059 -1.67397,12.36687 -2.30253,16.62931 -0.37206,2.52306 -0.74474,5.36152 -0.82816,6.30767 -0.28403,3.22086 -1.13283,4.41199 -4.01074,5.62832 -3.19857,1.35186 -4.86985,1.79211 -11.33912,2.98702 -5.6589,1.04519 -15.377352,1.46063 -23.625094,1.00991 z m 15.138413,-2.30362 c 9.1473,-0.68172 16.75156,-2.34447 20.44496,-4.47045 1.08879,-0.62673 1.08549,-0.6173 1.56303,-4.45679 0.19615,-1.57689 0.66949,-5.24108 1.05189,-8.14261 1.62939,-12.36312 1.80459,-13.74612 1.74847,-13.80223 -0.0324,-0.0324 -1.70535,0.35225 -3.71761,0.85488 -15.24282,3.80741 -33.447164,4.48017 -49.41791,1.82631 -5.655733,-0.93982 -9.438687,-1.76538 -11.066018,-2.41493 -0.352685,-0.14078 -0.387534,-0.0411 -0.292861,0.83917 0.05901,0.54941 0.215903,2.03111 0.348438,3.29264 0.252904,2.40694 0.939198,7.73581 1.521355,11.81254 0.189132,1.32461 0.545114,3.85342 0.791026,5.61956 0.509798,3.66101 0.584053,3.96887 1.098633,4.55484 1.697766,1.93331 10.175935,3.866 19.756026,4.50366 6.402697,0.42617 10.283499,0.4222 16.170571,-0.0166 z M 98.890468,171.5229 c 4.600492,-0.78488 8.524822,-2.83974 12.207582,-6.3921 1.44638,-1.39516 3.76433,-4.23812 4.88421,-5.99042 1.60846,-2.51682 3.63359,-6.84814 3.33943,-7.14231 -0.0632,-0.0632 -1.06289,0.60483 -2.22153,1.48451 -9.16809,6.96055 -22.020364,8.81831 -33.260734,4.80773 -2.545181,-0.90813 -4.719011,-2.05002 -6.981335,-3.66718 -1.008031,-0.72054 -1.868095,-1.27476 -1.911279,-1.23156 -0.08844,0.0885 1.073065,3.05495 1.916368,4.89463 1.281837,2.79627 4.553408,7.12793 6.864073,9.0882 1.669166,1.41604 4.403648,2.86854 6.738312,3.57924 3.121591,0.95023 5.320761,1.09883 8.424903,0.56926 z m -13.166716,-24.857 c 0.342534,-0.0144 0.977851,-0.3379 1.41179,-0.71893 1.268979,-1.11415 1.403917,-2.0721 1.405026,-9.97292 0.001,-7.6069 -0.141963,-8.57147 -1.457843,-9.83215 -1.223034,-1.17172 -4.240849,-1.01813 -5.54101,0.28202 -0.939166,0.93917 -1.142831,2.70857 -1.142831,9.92868 0,6.9219 0.14207,7.93288 1.31109,9.33003 0.6472,0.77346 1.704914,1.17333 2.817566,1.06516 0.315371,-0.0308 0.853678,-0.0676 1.196212,-0.0819 z m 20.659318,-0.0729 c 1.19301,-0.35743 2.09011,-1.72371 2.43601,-3.71008 0.1381,-0.7929 0.25105,-3.79438 0.25105,-6.66995 0,-4.48936 -0.0674,-5.51524 -0.47658,-7.25833 -0.38835,-1.65406 -0.60267,-2.13609 -1.15729,-2.60279 -1.7002,-1.43061 -4.49543,-1.19295 -5.58842,0.47516 -0.79804,1.21797 -1.05781,2.85209 -1.18057,7.4267 -0.11008,4.10012 0.0983,8.25859 0.50001,9.9776 0.17655,0.75565 1.33153,2.11469 2.0539,2.4168 0.67818,0.28364 2.1148,0.25861 3.16189,-0.0551 z m 4.39952,-32.52795 c 7.54408,-0.48369 15.47076,-1.45721 21.33919,-2.62081 5.24326,-1.03962 5.49968,-1.10066 5.80261,-1.38113 0.17939,-0.16608 0.43078,-1.54418 0.63256,-3.46763 0.1842,-1.75558 0.43002,-3.75966 0.54631,-4.45351 0.11616,-0.69386 0.37862,-2.706558 0.58297,-4.472718 0.20436,-1.76613 0.52649,-4.38433 0.71586,-5.818175 0.18936,-1.43386 0.2897,-2.66164 0.22293,-2.72838 -0.0667,-0.0667 -0.9235,0.10145 -1.9039,0.37377 -5.79286,1.60904 -15.36731,2.89261 -26.71501,3.58151 -6.32683,0.384075 -21.988722,0.428775 -29.657577,0.0846 -10.859327,-0.48734 -24.452626,-2.31333 -29.646046,-3.98234 -0.466641,-0.14996 -0.515358,-0.0918 -0.50858,0.60636 0.0042,0.42471 0.09763,1.44311 0.207923,2.26311 0.110364,0.82 0.367951,2.832705 0.572719,4.472695 0.204754,1.64001 0.583853,4.530058 0.842403,6.422358 0.258563,1.8923 0.570312,4.20706 0.692761,5.14389 0.12239,0.93686 0.272839,1.78456 0.334176,1.88382 0.06127,0.0992 0.494856,0.28806 0.963379,0.41958 1.53215,0.4301 8.388544,1.88346 9.79727,2.07675 5.201273,0.71367 7.134866,0.93698 10.895068,1.2584 2.333836,0.19946 6.514092,0.45335 9.289469,0.5642 5.758701,0.22998 19.869015,0.10229 24.993515,-0.22637 z m 2.87493,-23.157583 c 6.42615,-0.40414 17.94898,-1.78608 20.98734,-2.51701 0.50461,-0.1214 1.84643,-0.42999 2.98181,-0.68576 3.14737,-0.70904 6.10325,-1.95491 6.53001,-2.752331 0.26419,-0.493649 0.27715,-1.891701 0.0256,-2.765552 -0.18511,-0.643113 -0.1685,-0.642109 -2.54167,-0.15386 -12.24039,2.518346 -36.724,3.964693 -56.424978,3.333289 -13.366636,-0.428392 -23.875004,-1.398752 -33.143914,-3.060516 -1.766135,-0.316631 -3.301907,-0.576151 -3.41281,-0.576685 -0.261209,-9.22e-4 0.05674,3.697989 0.348113,4.050345 0.121401,0.14668 1.376566,0.6305 2.789495,1.07516 6.891158,2.16865 18.692399,3.68352 33.304453,4.2751 5.897547,0.23877 23.391501,0.10257 28.556551,-0.22218 z M 57.920641,182.98544 c -1.55977,-0.72748 -3.791727,-3.01895 -4.169865,-4.28105 -0.364399,-1.21625 -0.09777,-1.44485 1.329986,-1.14033 1.079785,0.23029 1.463653,0.18862 1.463653,-0.15893 0,-0.095 -0.645092,-0.36226 -1.433544,-0.59426 -1.879386,-0.55302 -3.84405,-1.54394 -4.903219,-2.47305 -1.005685,-0.88217 -2.222901,-2.71593 -2.728355,-4.11031 -0.966647,-2.66665 -1.071437,-3.20353 -1.191055,-6.1023 -0.145553,-3.52773 0.174192,-5.28407 1.452193,-7.97651 0.874098,-1.84153 0.89777,-1.93977 0.467548,-1.93977 -0.547788,0 -1.21634,0.99256 -2.240136,3.32584 -0.362178,0.8254 -0.533936,1.76936 -0.612803,3.36777 -0.1081,2.19092 -0.11857,2.22463 -0.771558,2.49513 -0.925416,0.38333 -2.193259,0.11956 -3.159822,-0.6576 -1.244707,-1.00067 -1.511521,-1.70761 -1.488371,-3.94376 0.02674,-2.58239 0.895546,-4.8033 3.296488,-8.4266 2.097441,-3.16524 2.312453,-3.38226 3.725509,-3.76019 1.637618,-0.438 2.633384,-0.10059 3.612808,1.22452 l 0.79806,1.07964 2.897777,-0.13867 c 2.335587,-0.11177 2.93591,-0.0768 3.094424,0.17962 0.108242,0.17503 0.431057,1.86748 0.717522,3.76105 0.28648,1.89354 0.834466,5.50716 1.217783,8.03022 0.383288,2.52305 0.953955,6.39368 1.26811,8.60137 0.31417,2.20768 0.717126,4.94291 0.895477,6.07829 0.475033,3.02427 0.894585,7.04156 0.790504,7.5692 -0.07782,0.39441 -0.299256,0.46717 -1.579041,0.51888 -1.200618,0.0486 -1.732545,-0.0536 -2.750073,-0.52826 z M 149.59211,170.8 c -0.25636,-0.25638 -0.17056,-1.15292 0.13385,-1.39824 0.15768,-0.12706 1.20142,-0.7112 2.31938,-1.29798 4.9856,-2.61679 12.45234,-8.19839 17.08859,-12.77426 0.97202,-0.95937 2.32482,-1.08729 2.32482,-0.21986 0,0.46191 -3.29474,3.89403 -6.0783,6.33179 -5.99275,5.24823 -14.72345,10.42338 -15.7883,9.35855 z M 13.881654,163.15435 c 0,-0.12608 0.109232,-0.22939 0.2429,-0.22939 0.133568,0 0.179115,0.10316 0.101167,0.22939 -0.07797,0.12606 -0.18728,0.22935 -0.242914,0.22935 -0.05561,0 -0.101168,-0.10315 -0.101168,-0.22935 z m 23.097071,-5.83664 c -2.711475,-0.96543 -6.266202,-4.69615 -7.677645,-8.05774 -1.788718,-4.26023 -0.71622,-10.02323 2.619391,-14.07497 1.030744,-1.25204 3.677755,-3.62314 5.012834,-4.49034 2.555975,-1.66021 7.101572,-3.68923 10.70002,-4.77628 1.88199,-0.56848 5.131872,-1.29817 5.781916,-1.29817 0.225738,0 0.440721,0.52781 0.677324,1.66293 0.394593,1.89303 1.164383,7.50973 1.041935,7.60222 -0.04458,0.0336 -1.216353,0.35113 -2.604053,0.7056 -2.992931,0.76448 -6.307772,1.92886 -8.37199,2.94071 -2.070741,1.01506 -4.400809,3.34308 -4.802435,4.79819 -0.551536,1.99824 0.188157,3.8997 2.077561,5.34057 0.615604,0.46948 1.112909,0.9199 1.105084,1.00093 -0.0085,0.0811 -0.523027,0.92148 -1.144928,1.86764 -1.245203,1.8944 -1.639741,2.72367 -2.503467,5.26195 -0.319405,0.93871 -0.683946,1.73386 -0.810114,1.767 -0.12607,0.0331 -0.621803,-0.0795 -1.101433,-0.25024 z M 177.88106,145.95058 c -3.79568,-0.17829 -4.44443,-0.29318 -6.19298,-1.09662 -0.69384,-0.31882 -1.36476,-0.54832 -1.49091,-0.50999 -0.90534,0.27503 -4.14085,0.63525 -5.26597,0.58627 -1.28033,-0.0557 -1.41935,-0.11872 -2.19947,-0.99788 -1.05444,-1.18821 -2.54309,-4.23436 -2.65622,-5.43527 -0.34824,-3.69665 -0.7447,-10.92518 -0.6353,-11.58318 0.0734,-0.44154 0.35621,-1.07438 0.62846,-1.4063 0.41682,-0.50825 0.74353,-0.62664 2.06951,-0.75003 1.24901,-0.11616 1.55067,-0.0844 1.45907,0.1544 -0.0636,0.1655 0.0278,0.49689 0.2031,0.7365 0.28373,0.38804 0.31853,0.27179 0.31853,-1.06429 0,-3.38865 1.27853,-7.21562 3.1098,-9.30839 1.28894,-1.473 2.27817,-2.87998 2.86422,-4.07372 0.55028,-1.1209 0.56302,-1.2714 0.56302,-6.65173 0,-6.167958 0.12918,-6.815468 1.61964,-8.124208 2.10734,-1.85026 5.21719,-0.76336 7.77139,2.71615 1.42998,1.948018 1.71502,3.089628 2.07948,8.328368 0.18195,2.61538 0.27513,4.90038 0.20707,5.07776 -0.0682,0.17741 -0.60745,0.44792 -1.1986,0.60116 -3.55533,0.92169 -4.55847,1.54226 -5.83425,3.60921 -0.78919,1.27856 -0.86021,1.53258 -0.86086,3.07924 -4.7e-4,1.05376 0.18265,2.30439 0.48842,3.33608 l 0.48915,1.6504 -0.52294,0.98736 c -0.44881,0.84736 -0.52525,1.34508 -0.53925,3.51041 -0.0165,2.57218 0.11701,3.14015 0.99795,4.24334 l 0.45791,0.57343 -0.61958,1.2442 c -2.05501,4.12663 0.20556,8.60598 5.04361,9.99402 0.72699,0.20857 1.2628,0.47474 1.19065,0.59147 -0.0721,0.11671 -0.15089,0.19555 -0.17499,0.17514 -0.0241,-0.0204 -1.54043,-0.10738 -3.36966,-0.1933 z m -11.23913,-8.71502 c 0,-0.12607 -0.0996,-0.22938 -0.22129,-0.22938 -0.32491,0 -0.74596,-0.87671 -1.0396,-2.16461 -0.32281,-1.41586 -0.7116,-1.58077 -0.91323,-0.38736 -0.16387,0.9699 0.0571,1.60585 0.86656,2.49462 0.47704,0.52374 1.30756,0.70585 1.30756,0.28673 z m 17.34535,7.90073 c -5.66089,-1.12475 -7.8833,-2.9437 -8.12094,-6.64666 -0.0933,-1.45606 -0.0381,-1.79578 0.41655,-2.55618 0.58303,-0.97508 1.22855,-1.59488 1.98906,-1.90977 0.72105,-0.29856 5.77245,-0.70201 8.99781,-0.71866 2.77508,-0.0143 4.09507,-0.33756 4.32159,-1.05827 0.11051,-0.35153 -0.89649,-0.36946 -3.61801,-0.0643 -1.07231,0.12013 -3.70435,0.33116 -5.84894,0.46882 -2.14461,0.13767 -4.11698,0.30405 -4.38309,0.36978 -0.30782,0.076 -0.70591,-0.0743 -1.09441,-0.41337 -0.5831,-0.50887 -0.61234,-0.64153 -0.64926,-2.94692 -0.0504,-3.1433 0.34012,-4.08105 1.88342,-4.52305 1.4987,-0.4292 4.58948,-0.67007 9.28948,-0.72394 2.27076,-0.026 4.21562,-0.13399 4.32193,-0.23983 0.1064,-0.10584 0.0768,-0.41 -0.0654,-0.67586 -0.23089,-0.4314 -0.46124,-0.48331 -2.14291,-0.48299 -1.67513,3.5e-4 -9.78971,0.72626 -11.47921,1.02694 -1.15434,0.20542 -1.44436,-0.15262 -1.75828,-2.17064 -0.52012,-3.34349 0.25438,-5.35482 2.44889,-6.35949 2.88561,-1.32109 10.14152,-2.16763 12.35343,-1.44127 2.88015,0.94577 4.5371,3.46758 4.17888,6.36011 -0.0783,0.633 0.0593,1.20069 0.51541,2.12525 1.00692,2.04094 1.04165,5.30711 0.0719,6.76009 -0.40086,0.60057 -0.38256,1.18785 0.042,1.35079 0.25706,0.0987 0.34405,0.50951 0.34405,1.6251 0,1.21399 -0.14484,1.80486 -0.77478,3.16104 -0.42614,0.91737 -1.05459,2.49369 -1.39659,3.50293 -1.11944,3.30352 -3.00317,5.52869 -5.24361,6.19403 -1.3799,0.40978 -2.48462,0.40654 -4.59902,-0.0141 z m -30.87815,-6.21363 c -4.93545,-0.45759 -11.45614,-2.56141 -14.11393,-4.55368 l -0.6958,-0.52157 0.29191,-2.72129 c 0.16055,-1.49673 0.35884,-3.40914 0.4407,-4.24982 0.0817,-0.84068 0.21965,-1.64319 0.30627,-1.78334 0.10443,-0.16901 1.19448,0.24137 3.23691,1.21866 1.7097,0.8181 4.35471,1.84914 5.94653,2.31801 2.45025,0.72174 3.30887,0.86322 5.90515,0.97311 1.7888,0.0758 3.12395,0.2331 3.24696,0.3828 0.20235,0.24621 0.6002,3.46851 0.86962,7.04329 0.12747,1.69185 0.1153,1.74718 -0.41513,1.88916 -0.54189,0.14503 -3.47594,0.14775 -5.01919,0.006 z M 3.0898328,136.06734 c -0.34084,-0.63687 -0.115033,-1.43892 0.764059,-2.7136 2.8704826,-4.16226 8.0747012,-8.99404 12.5508252,-11.65266 4.823177,-2.86475 7.96452,-4.10866 14.046257,-5.56209 3.39968,-0.81248 5.417248,-0.90484 5.988043,-0.27412 0.731274,0.80805 0.487935,1.14195 -0.939256,1.28899 -3.660407,0.37703 -10.526706,2.47344 -14.434526,4.40712 -2.597885,1.28548 -6.218589,3.57714 -8.249868,5.2216 -2.112296,1.71004 -6.1897256,5.98603 -7.5069342,7.87256 -0.726719,1.04076 -1.465366,1.89231 -1.641467,1.89231 -0.176101,0 -0.435811,-0.21604 -0.577133,-0.48011 z M 81.775102,71.397824 C 67.392478,70.636767 57.326867,69.063014 51.907951,66.728088 50.718666,66.21563 50.488486,65.691493 50.808343,64.224015 c 0.14261,-0.654275 0.604881,-2.841068 1.027277,-4.859513 0.422397,-2.018456 0.938009,-4.067655 1.145805,-4.553759 1.016382,-2.377796 4.797808,-5.003306 9.452029,-6.562734 4.645704,-1.556567 7.892119,-2.174276 17.047948,-3.243792 5.468992,-0.638843 6.883068,-0.717418 14.106254,-0.783824 7.659974,-0.07042 9.982364,0.0069 17.546804,0.585278 7.76294,0.593411 16.16875,2.254811 20.64326,4.080118 5.35569,2.184759 6.93961,3.876865 8.16918,8.727123 0.30819,1.215677 0.70973,2.726404 0.89232,3.357176 0.51584,1.781944 1.03079,4.106671 1.03079,4.653503 0,0.308647 -0.23799,0.618598 -0.63103,0.821854 -0.87492,0.45244 -8.22161,2.288164 -12.09899,3.023178 -4.10656,0.778457 -7.16281,1.105313 -16.17057,1.72937 -4.46668,0.309464 -26.459999,0.450347 -31.194318,0.199831 z m 38.891478,-4.983716 c 0.70409,-0.488926 1.01889,-1.362536 1.01889,-2.827473 v -1.524722 l 1.0895,-0.123667 c 0.59922,-0.06803 1.11297,-0.10102 1.14162,-0.07328 0.0287,0.02774 0.15103,0.748813 0.27192,1.602434 0.12084,0.853609 0.3826,1.800473 0.58155,2.104127 0.37659,0.574744 1.30001,0.941151 1.71913,0.682129 0.44146,-0.272842 0.26148,-2.061686 -0.33102,-3.289868 -0.31537,-0.65375 -0.57341,-1.278868 -0.57341,-1.389133 0,-0.110227 0.38704,-0.274604 0.86012,-0.365191 2.3323,-0.44664 2.7244,-0.534229 3.0965,-0.691841 0.33326,-0.141215 0.40139,-0.04759 0.40139,0.551746 0,0.396986 0.20643,1.126443 0.45874,1.620993 0.25231,0.49456 0.45874,1.054521 0.45874,1.244328 0,0.189826 0.20032,0.452343 0.44518,0.583376 0.35855,0.19189 0.51353,0.14064 0.79659,-0.263478 0.44005,-0.628291 0.27421,-1.371938 -0.58837,-2.637715 -0.84607,-1.241535 -0.82364,-1.525228 0.14845,-1.876736 1.03366,-0.373783 2.33462,-1.603718 2.53321,-2.394915 0.2377,-0.947049 -0.0172,-1.572536 -1.09627,-2.690716 -1.03149,-1.068837 -3.004,-1.996168 -3.47552,-1.633947 -0.4824,0.370554 -6.08061,1.736212 -9.54364,2.328134 -1.68069,0.287256 -6.80466,1.533111 -7.12843,1.733205 -0.77086,0.47642 0.29932,1.606259 2.24556,2.370741 0.95409,0.374767 1.09825,0.517324 1.09825,1.085956 0,0.617186 -0.0709,0.664758 -1.24131,0.833192 -5.85944,0.843265 -27.9387,1.041228 -34.999118,0.313814 -7.338123,-0.756034 -11.666672,-1.330428 -14.185957,-1.882487 -2.952323,-0.646947 -4.934008,-1.457648 -5.404428,-2.210938 -0.233463,-0.373833 -0.180432,-0.56942 0.339171,-1.250634 0.819963,-1.075027 3.173886,-2.181081 5.998965,-2.818773 3.593934,-0.811235 4.663815,-1.150227 4.806891,-1.523087 0.231227,-0.602539 -0.220544,-0.737067 -1.761608,-0.524564 -5.464632,0.753524 -11.100499,3.055731 -12.073982,4.932106 -0.446506,0.860627 -0.390108,1.272114 0.272189,1.986388 2.502109,2.698394 11.756643,4.410062 28.316431,5.23721 7.692702,0.384246 21.153876,0.107395 28.005816,-0.576048 1.02881,-0.102577 1.05207,-0.0907 0.94236,0.483232 -0.0829,0.433346 -0.0283,0.559329 0.20667,0.477958 0.17555,-0.06083 0.31182,-0.324482 0.30284,-0.586014 -0.01,-0.292297 0.12253,-0.469637 0.34405,-0.460225 0.19821,0.0088 1.01623,-0.109089 1.81779,-0.261124 0.80155,-0.152028 1.49844,-0.235354 1.54864,-0.185156 0.0502,0.05022 -0.0626,0.598588 -0.25069,1.218616 -0.45406,1.496781 -0.43697,2.313643 0.0545,2.599856 0.47601,0.277241 0.9963,0.305435 1.33216,0.07211 z m -9.30276,-3.813888 c 0,-0.04954 0.16019,-0.151619 0.35597,-0.226741 0.20412,-0.07834 0.29619,-0.03991 0.21584,0.09012 -0.1347,0.217942 -0.57181,0.322359 -0.57181,0.136543 z m 1.10383,-0.295917 c 0.16557,-0.06618 0.36343,-0.0581 0.43964,0.0181 0.0761,0.0763 -0.0593,0.13046 -0.30106,0.120406 -0.26719,-0.01129 -0.32154,-0.0654 -0.13852,-0.138517 z m 4.91713,-1.506241 c 0.0606,-0.181593 0.54411,-0.28672 1.31887,-0.28672 0.77477,0 1.25836,0.105127 1.31888,0.28672 0.0696,0.208697 -0.28925,0.28671 -1.31888,0.28671 -1.0296,0 -1.38846,-0.07796 -1.31887,-0.28671 z m 3.66878,0 c 0.052,-0.15769 0.33943,-0.322437 0.63889,-0.366086 0.47538,-0.06929 0.50593,-0.03299 0.24066,0.28671 -0.35921,0.43282 -1.01548,0.49205 -0.87955,0.07941 z m 1.44231,-0.184337 c 0.0533,-0.08613 0.58936,-0.224337 1.19143,-0.307119 2.82421,-0.388382 3.7324,-0.647443 3.7324,-1.064653 0,-0.136678 0.10315,-0.184785 0.22938,-0.106829 0.44022,0.272082 0.23539,0.802788 -0.30983,0.802788 -0.29655,0 -0.83843,0.104281 -1.20419,0.231587 -0.84825,0.295372 -3.76744,0.651725 -3.63919,0.444226 z m 6.6306,-1.4859 c 0.24488,-0.185214 0.52873,-0.336754 0.63077,-0.336754 0.10202,0 0.18553,-0.154829 0.18553,-0.344052 0,-0.189233 0.14492,-0.344062 0.32202,-0.344062 0.17711,0 0.9658,-0.363877 1.75265,-0.808647 0.78685,-0.444752 1.47558,-0.763705 1.53049,-0.708776 0.13924,0.139229 -2.32508,1.976169 -2.65118,1.976169 -0.14624,0 -0.26586,0.09314 -0.26586,0.206936 0,0.208287 -1.22725,0.716823 -1.69716,0.703237 -0.13894,-0.0039 -0.0523,-0.158819 0.19274,-0.344051 z m -10.45882,-0.441112 c -0.0829,-0.08729 -0.85699,-0.228599 -1.72027,-0.313931 -1.60465,-0.158596 -1.985,-0.50223 -0.83584,-0.75513 2.43868,-0.536711 9.18057,-1.92564 10.50538,-2.164273 0.88306,-0.159063 2.22146,-0.445354 2.9742,-0.636213 1.55563,-0.394444 2.1866,-0.215372 2.1866,0.620564 0,1.086793 -1.2686,1.711804 -5.22256,2.573024 -2.61654,0.569907 -7.58412,0.995612 -7.88751,0.675959 z m -3.1293,-25.630932 c -0.15138,-0.151386 -0.27524,-0.384313 -0.27524,-0.517623 0,-0.233353 2.84287,-3.5726 5.47614,-6.432284 3.67313,-3.988972 12.65668,-12.730023 13.08318,-12.730023 0.25729,0 0.64263,0.26683 0.85631,0.592954 l 0.38851,0.592956 -4.91326,4.887432 c -2.70231,2.688089 -6.51315,6.50799 -8.46852,8.488671 -4.03038,4.082525 -5.41151,5.393161 -5.68326,5.393161 -0.10371,0 -0.31247,-0.123863 -0.46386,-0.275244 z m 16.23937,-16.698124 c 0,-0.126154 -0.0454,-0.229368 -0.10117,-0.229368 -0.0556,0 -0.16492,0.103219 -0.2429,0.229368 -0.078,0.126155 -0.0324,0.229372 0.10116,0.229372 0.13357,0 0.2429,-0.103219 0.2429,-0.229372 z M 73.60606,32.132439 c -1.417499,-1.093554 -7.053693,-6.038704 -11.088348,-9.728834 -5.568134,-5.092685 -6.626921,-6.502954 -5.022228,-6.689467 0.488276,-0.05675 1.186513,0.441294 3.66795,2.616311 4.514228,3.956771 7.98031,7.144205 12.969344,11.926697 0.872924,0.836781 1.219977,1.342475 1.219977,1.777619 0,0.486533 -0.108385,0.608148 -0.542497,0.608148 -0.298365,0 -0.840252,-0.229712 -1.204198,-0.510474 z m 28.85466,-6.528728 c -0.23905,-0.455259 0.29031,-4.399965 1.07149,-7.98452 0.24744,-1.13538 0.77276,-3.612573 1.16734,-5.504874 0.74976,-3.5954706 1.90652,-8.4147146 2.3261,-9.6908736 0.18275,-0.555829 0.38019,-0.745453 0.77618,-0.745453 1.05006,0 1.05253,0.932503 0.0161,6.078301 -0.85131,4.2265906 -3.03828,13.9266816 -3.72337,16.5146236 -0.34604,1.307266 -0.51704,1.618829 -0.92036,1.676851 -0.29843,0.04293 -0.58201,-0.09382 -0.71341,-0.344055 z M 87.690247,25.016368 c -0.360548,-0.562849 -1.605421,-3.744937 -2.669548,-6.823752 -0.370611,-1.072303 -1.100642,-3.18824 -1.622248,-4.70208 -0.521646,-1.513841 -1.045373,-2.958872 -1.163873,-3.211178 -0.118431,-0.252306 -0.54655,-1.4698836 -0.951233,-2.7057286 l -0.735773,-2.246987 0.465763,-0.465762 0.465773,-0.465761 0.589693,0.533735 c 0.710391,0.642988 1.288852,2.029647 3.475869,8.3323106 3.186269,9.182332 3.570271,10.419989 3.570271,11.507118 0,0.65237 -0.0799,0.764166 -0.547055,0.764166 -0.316433,0 -0.686411,-0.217554 -0.877639,-0.516081 z"
       style="fill:#fffafa;stroke-width:1.31775"
       id="path1-6" /></g></svg>
